<svg xmlns="http://www.w3.org/2000/svg" viewBox="0 0 1200 460" role="img" aria-label="Three finalist studies for the Eliran Cohen Hebrew monogram">
  <rect width="1200" height="460" fill="#fff"/>
  <g fill="#000" font-family="Arial, sans-serif" font-size="18" font-weight="700" letter-spacing="2">
    <text x="56" y="54">A / 01</text>
    <text x="456" y="54">B / 03</text>
    <text x="856" y="54">C / 05</text>
  </g>

  <g transform="translate(82 100)">
    <path d="M22 34h130c43 0 68 25 68 64v44c0 39-25 64-68 64H22v-42h122c22 0 34-11 34-32v-24c0-21-12-32-34-32H22z" fill="#000"/>
    <path d="m128 55 18-6 40 133-20 6zM191 66l19 15-48 60-17-15zM116 178l17 8 35-58-17-12z" fill="#fff"/>
  </g>

  <g transform="translate(482 100)">
    <path d="M23 49h93c31 0 50 19 50 47v48c0 28-19 47-50 47H23" fill="none" stroke="#000" stroke-width="34" stroke-linecap="square" stroke-linejoin="round"/>
    <path d="M105 31c22 0 33 11 42 31l63 147h-38L113 70c-3-7-5-8-8-8z" fill="#000"/>
    <path d="M208 47c14 4 24 11 32 22l-69 83-26-21z" fill="#000"/>
    <path d="m148 111 22 19-18 23-22-20z" fill="#fff"/>
  </g>

  <g transform="translate(882 100)">
    <path d="M28 30h132l50 48v84l-50 48H28v-48h117l25-22V100l-25-22H28z" fill="#000"/>
    <path d="m126 53 21-7 40 145-23 7zM190 67l20 18-49 58-19-17zM113 185l20 8 35-61-20-13z" fill="#fff"/>
  </g>
</svg>
